<svg xmlns="http://www.w3.org/2000/svg" viewBox="0 0 400 400" fill="none" stroke="#0b5f6b" stroke-width="2" stroke-linecap="round" stroke-linejoin="round"><circle cx="140" cy="46" r="7"/><circle cx="260" cy="46" r="7"/><path d="M140 53 C136 70 138 96 142 124 C148 168 172 196 200 200 C228 196 252 168 258 124 C262 96 264 70 260 53"/><path d="M200 200 V250 C200 330 310 350 312 262"/><circle cx="312" cy="228" r="34"/><circle cx="312" cy="228" r="21"/><circle cx="312" cy="228" r="4"/><path d="M200 200 V250 C200 330 310 350 312 262" transform="translate(4 0)" opacity=".35"/><path d="M80 250H104M92 238V262" stroke-width="2"/><path d="M63 310H77M70 303V317" stroke-width="2"/><path d="M331 110H349M340 101V119" stroke-width="2"/><circle cx="200" cy="200" r="178" stroke-dasharray="2 10" opacity=".6"/></svg>
